Coordinates
version=1
nRows=14
nColumns=32
inDegrees=yes

Units are S.I. units (second, meters, Newtons, ...)
If the header above contains a line with 'inDegrees', this indicates whether rotational values are in degrees (yes) or radians (no).

endheader
time	pelvis_tilt	pelvis_list	pelvis_rotation	pelvis_tx	pelvis_ty	pelvis_tz	hip_flexion_r	hip_adduction_r	hip_rotation_r	knee_angle_r	knee_adduction_r	med_cond_adduction_r	lat_cond_adduction_r	patella_r_constrained_knee_angle	hip_flexion_l	hip_adduction_l	hip_rotation_l	knee_angle_l	knee_adduction_l	med_cond_adduction_l	lat_cond_adduction_l	patella_l_constrained_knee_angle	lumbar_extension	lumbar_bending	lumbar_rotation	ankle_angle_r	subtalar_angle_r	mtp_angle_r	ankle_angle_l	subtalar_angle_l	mtp_angle_l
      1.38500000	    -12.25212952	      2.48856920	      1.35472733	     -0.82493136	      0.69469406	      0.34916316	     35.98938285	     -4.77091569	      5.71501075	    -66.91678452	      4.85558595	      0.00000000	      0.00000000	     -1.16791821	     27.75076134	      2.86152055	     -1.65780141	    -27.56725684	     -3.83241441	      0.00000000	      0.00000000	     -0.48113940	     -2.99597037	     -7.09945176	     -3.11200343	     -5.17762782	     12.55969046	      0.00000000	      8.96006719	     10.49149420	     -0.00000000
      1.39000000	    -12.34454631	      2.32095958	      1.35814716	     -0.81851340	      0.69574480	      0.34924370	     36.68661881	     -4.66397142	      5.87282655	    -66.02077328	      5.39880684	     -0.00000000	     -0.00000000	     -1.15227987	     26.79676347	      2.71214759	     -1.71843856	    -26.60617765	     -3.98351263	      0.00000000	      0.00000000	     -0.46436540	     -2.76317135	     -6.93162402	     -3.38265520	     -4.89093149	     12.27917678	      0.00000000	      9.15922205	     10.56982186	      0.00000000
      1.39500000	    -12.46185469	      2.07625069	      1.38682947	     -0.81200735	      0.69676554	      0.34929820	     37.27446886	     -4.49342232	      6.04937061	    -64.81558080	      5.98219702	      0.00000000	      0.00000000	     -1.13124529	     25.88303095	      2.47937888	     -1.78879369	    -25.61894304	     -4.14568468	     -0.00000000	     -0.00000000	     -0.44713491	     -2.58452793	     -6.63007758	     -3.44869824	     -4.76809543	     11.10326758	     -0.00000000	     10.21584425	      9.96093659	      0.00000000
      1.40000000	    -12.56743315	      1.98065350	      1.52126994	     -0.80561503	      0.69761619	      0.34924758	     37.93596319	     -4.58322142	      6.03567502	    -63.80994493	      6.44079147	     -0.00000000	     -0.00000000	     -1.11369363	     24.97031195	      2.46305244	     -1.62162075	    -24.71466291	     -4.20360684	      0.00000000	      0.00000000	     -0.43135224	     -2.53854474	     -6.64234164	     -3.93775831	     -4.22562373	     11.72061209	     -0.00000000	      9.40205869	     10.51823475	     -0.00000000
      1.40500000	    -12.66373952	      1.73404340	      1.51851479	     -0.79911711	      0.69833230	      0.34932597	     38.53164751	     -4.39225493	      6.03788233	    -62.68668784	      6.82331846	     -0.00000000	     -0.00000000	     -1.09408910	     24.09659521	      2.22260299	     -1.70020875	    -23.93000783	     -4.33460689	      0.00000000	      0.00000000	     -0.41765743	     -2.20850145	     -6.13916144	     -4.01984288	     -4.01663000	     11.03156502	     -0.00000000	     10.67122271	     10.22754873	      0.00000000
      1.41000000	    -12.65367264	      1.67143174	      1.67871538	     -0.79268882	      0.69911848	      0.34930832	     38.99454681	     -4.52325423	      5.89190015	    -61.55239781	      7.13395773	     -0.00000000	     -0.00000000	     -1.07429200	     23.03396151	      2.24796716	     -1.40716847	    -23.04300220	     -4.34282684	      0.00000000	      0.00000000	     -0.40217626	     -2.32005816	     -6.36504655	     -4.53812196	     -3.59348954	     11.21516204	     -0.00000000	      9.73185753	     10.51743511	     -0.00000000
      1.41500000	    -12.70629597	      1.52092767	      1.78359043	     -0.78624923	      0.69966778	      0.34932463	     39.50361041	     -4.50604461	      5.72671789	    -60.36855504	      7.35472940	     -0.00000000	     -0.00000000	     -1.05363005	     22.11865287	      2.16448526	     -1.26984567	    -22.31438771	     -4.41213114	     -0.00000000	     -0.00000000	     -0.38945954	     -2.24920131	     -6.23628776	     -4.83235832	     -3.28919834	     10.90381851	      0.00000000	     10.17785160	     10.45498346	      0.00000000
      1.42000000	    -12.75192255	      1.37237358	      1.90642782	     -0.77982150	      0.70009524	      0.34930469	     39.98329560	     -4.50413931	      5.50935691	    -59.14193008	      7.51416110	     -0.00000000	     -0.00000000	     -1.03222141	     21.22013817	      2.09436505	     -1.10225852	    -21.67183216	     -4.47997949	     -0.00000000	     -0.00000000	     -0.37824483	     -2.21547493	     -6.09222258	     -5.16294450	     -2.99102737	     10.67182923	      0.00000000	     10.06489057	     10.48778752	     -0.00000000
      1.42500000	    -12.79329355	      1.22862420	      2.03906174	     -0.77341334	      0.70038889	      0.34929669	     40.44168788	     -4.50635571	      5.22630544	    -57.88999165	      7.59681604	      0.00000000	      0.00000000	     -1.01037096	     20.34844938	      2.03495429	     -0.92299776	    -21.10615650	     -4.54647541	      0.00000000	      0.00000000	     -0.36837192	     -2.17521146	     -5.96525375	     -5.50616897	     -2.70589699	     10.35236415	     -0.00000000	     10.24088783	     10.44759786	     -0.00000000
      1.43000000	    -12.93287779	      1.01360985	      2.14815104	     -0.76701640	      0.70041193	      0.34929230	     40.99308540	     -4.39975605	      4.87039138	    -56.60472839	      7.56569262	     -0.00000000	     -0.00000000	     -0.98793888	     19.66812697	      1.89760513	     -0.82409847	    -20.70808333	     -4.64716602	     -0.00000000	     -0.00000000	     -0.36142424	     -1.90612298	     -5.57004922	     -5.71663418	     -2.28860993	      9.95328470	      0.00000000	     11.52922566	     10.20276318	      0.00000000
      1.43500000	    -12.88886498	      0.93324333	      2.32401668	     -0.76069600	      0.70054177	      0.34931030	     41.32082896	     -4.48315753	      4.54543176	    -55.29851224	      7.57536918	     -0.00000000	     -0.00000000	     -0.96514111	     18.74147642	      1.90766433	     -0.50802923	    -20.27428236	     -4.65054209	      0.00000000	      0.00000000	     -0.35385298	     -2.13164947	     -5.73220583	     -6.09691261	     -1.97794574	      9.57083787	     -0.00000000	     11.71737949	     10.07084914	      0.00000000
      1.44000000	    -12.93822645	      0.86411607	      2.46409350	     -0.75439308	      0.70042794	      0.34926078	     41.74905756	     -4.55408774	      4.19982881	    -53.95118367	      7.47019179	      0.00000000	      0.00000000	     -0.94162579	     17.95287961	      1.98060115	     -0.34843078	    -19.87784936	     -4.81318577	     -0.00000000	     -0.00000000	     -0.34693392	     -2.15659924	     -5.64588928	     -6.49383487	     -1.90570068	      9.21345521	      0.00000000	     10.86224056	     10.04310010	      0.00000000
      1.44500000	    -13.01129513	      0.73579873	      2.61145190	     -0.74809082	      0.70017618	      0.34927537	     42.15415336	     -4.53372989	      3.78665199	    -52.52747853	      7.29177931	     -0.00000000	     -0.00000000	     -0.91677745	     17.24933791	      1.95136458	     -0.12454014	    -19.62054474	     -4.89277943	      0.00000000	      0.00000000	     -0.34244311	     -2.11602496	     -5.53023783	     -6.80539534	     -1.72146868	      9.00659471	     -0.00000000	     10.85682881	     10.07994512	      0.00000000
      1.45000000	    -13.08354896	      0.63885075	      2.77235962	     -0.74185632	      0.69978553	      0.34927673	     42.56535137	     -4.53819831	      3.33396397	    -51.10033730	      7.00912331	      0.00000000	      0.00000000	     -0.89186913	     16.58477903	      1.97769032	      0.12620468	    -19.42938425	     -5.00644632	     -0.00000000	     -0.00000000	     -0.33910673	     -2.14372291	     -5.44339727	     -7.14436984	     -1.45926379	      8.76054448	     -0.00000000	     11.22757158	      9.95247492	      0.00000000
